<?xml version="1.0" encoding="UTF-8"?><svg id="Layer_1" xmlns="http://www.w3.org/2000/svg" viewBox="0 0 713.58 245.54"><path d="M253.56,97.07l-5.88-13.98h-26.29l5.96-7.87h17.04l-8.71-20.78-32.71,42.64h-11.08l41.34-53.19c1.45-1.91,3.13-3.13,5.27-3.13s3.29,1.22,4.13,3.13l22.62,53.19h-11.69Z" fill="#9cc63b"/><path d="M261.2,97.07l9.78-55.55h9.71l-8.1,45.85h37.37l-1.68,9.71h-47.07Z" fill="#9cc63b"/><path d="M306.63,97.07l9.78-55.55h9.71l-8.1,45.85h37.37l-1.68,9.71h-47.07Z" fill="#9cc63b"/><path d="M358.77,97.07l1.68-9.71h41.65c5.96,0,9.55-3.59,9.55-8.63,0-3.82-2.44-5.81-6.95-5.81h-25.52c-9.25,0-14.52-5.5-14.52-13.22,0-10.09,7.57-18.19,20.17-18.19h39.89l-1.68,9.71h-39.89c-5.12,0-8.41,3.29-8.41,8.02,0,3.44,2.22,5.5,5.96,5.5h25.45c9.63,0,14.82,4.28,14.82,12.69,0,10.93-7.11,19.64-20.56,19.64h-41.65Z" fill="#9cc63b"/><path d="M416,97.07l9.78-55.55h49.59l-1.68,9.71h-39.96l-6.42,36.14h40.04l-1.68,9.71h-49.67ZM437.01,72.92l1.45-8.18h30.79l-1.45,8.18h-30.8Z" fill="#9cc63b"/><path d="M519.03,97.07l-5.88-13.98h-26.29l5.96-7.87h17.04l-8.71-20.78-32.71,42.64h-11.08l41.34-53.19c1.45-1.91,3.13-3.13,5.27-3.13s3.29,1.22,4.13,3.13l22.62,53.19h-11.69Z" fill="#9cc63b"/><path d="M525.23,97.07l1.68-9.71h41.65c5.96,0,9.55-3.59,9.55-8.63,0-3.82-2.44-5.81-6.95-5.81h-25.52c-9.25,0-14.52-5.5-14.52-13.22,0-10.09,7.57-18.19,20.17-18.19h39.89l-1.68,9.71h-39.89c-5.12,0-8.41,3.29-8.41,8.02,0,3.44,2.22,5.5,5.96,5.5h25.45c9.63,0,14.82,4.28,14.82,12.69,0,10.93-7.11,19.64-20.55,19.64h-41.65Z" fill="#9cc63b"/><path d="M609.26,97.07c-13.68,0-22.47-10.09-22.47-23.69,0-18.72,14.75-31.87,32.25-31.87h13.53c14.14,0,22.92,9.17,22.92,22.62,0,18.19-14.9,32.94-32.71,32.94h-13.53ZM624.47,87.36c11.62,0,21.09-9.32,21.09-21.24,0-8.71-5.73-14.9-14.67-14.9h-13.53c-11.23,0-20.78,8.94-20.78,21.01,0,8.79,5.58,15.13,14.37,15.13h13.53Z" fill="#9cc63b"/><path d="M662.69,56.11l-7.26,40.96h-9.25l8.86-50.43c.61-3.59,2.98-5.81,6.04-5.81,1.45,0,2.52.54,3.74,1.99l32.25,39.43,7.26-41.19h9.25l-8.94,50.89c-.69,3.67-3.36,5.81-5.88,5.81-1.61,0-2.98-.69-4.05-2.06l-32.02-39.58Z" fill="#9cc63b"/><path d="M324.59,184.81l1.49-8.62h37c5.3,0,8.49-3.19,8.49-7.67,0-3.39-2.17-5.16-6.18-5.16h-22.67c-8.21,0-12.9-4.89-12.9-11.74,0-8.96,6.72-16.16,17.92-16.16h35.44l-1.49,8.62h-35.44c-4.55,0-7.47,2.92-7.47,7.13,0,3.05,1.97,4.89,5.3,4.89h22.61c8.55,0,13.17,3.8,13.17,11.27,0,9.71-6.31,17.45-18.26,17.45h-37Z" fill="#231f20" stroke="#000" stroke-miterlimit="10" stroke-width=".15"/><path d="M398.27,184.81c-12.15,0-19.96-8.96-19.96-21.05,0-16.63,13.1-28.31,28.65-28.31h12.02c12.56,0,20.37,8.15,20.37,20.1,0,16.16-13.24,29.26-29.06,29.26h-12.02ZM411.78,176.19c10.32,0,18.74-8.28,18.74-18.87,0-7.74-5.09-13.24-13.03-13.24h-12.02c-9.98,0-18.47,7.94-18.47,18.67,0,7.81,4.96,13.44,12.76,13.44h12.02Z" fill="#231f20" stroke="#000" stroke-miterlimit="10" stroke-width=".15"/><path d="M431.4,184.81l8.69-49.36h8.62l-7.2,40.73h33.2l-1.49,8.62h-41.82Z" fill="#231f20" stroke="#000" stroke-miterlimit="10" stroke-width=".15"/><path d="M519.39,184.81l-5.23-12.42h-23.35l5.3-6.99h15.14l-7.74-18.47-29.06,37.88h-9.84l36.73-47.25c1.29-1.7,2.78-2.78,4.68-2.78s2.92,1.09,3.67,2.78l20.09,47.25h-10.39Z" fill="#231f20" stroke="#000" stroke-miterlimit="10" stroke-width=".15"/><path d="M570.86,184.81l-10.05-13.71h-18.47l1.29-7.6h20.57c7.47,0,11.47-4.68,11.47-11.95,0-4.96-2.92-7.47-8.01-7.47h-26.88l-7.2,40.73h-8.55l8.69-49.36h35.44c9.78,0,15.14,5.64,15.14,14.53,0,9.71-5.23,16.9-13.44,19.82l12.22,15h-12.22Z" fill="#231f20" stroke="#000" stroke-miterlimit="10" stroke-width=".15"/><rect x="588.14" y="154.54" width="118.95" height="5.9" fill="#231f20"/><rect x="199.83" y="154.54" width="118.95" height="5.9" fill="#231f20"/><circle cx="122.78" cy="122.68" r="36.07" fill="#f8d509"/><path d="M81.12,110.13s-27,2.53-27,21.42c0,0-18.67-.82-22.73-4.26,0,0,4.82-.78,12.47-7.69,0,0,4.11-5.03,5.46-4.93s3.44-.63,5.73,5c0,0,3.86-5.84,7.61-6.46,0,0-3.04-2.17-3.04-8.59,0,0-12.28-1.94-27.82,10.78,0,0-11.78,12.23-31.8,8.2,0,0,13.84,16.99,61.4,16.99,0,0-2.8-18.72,13.52-21.76l-.47,2.73s7.51-1.36,6.67-11.42Z" fill="#f8d509"/><path d="M80.93,121.81s-.57,8.35,1.9,13.48c0,0-11.04.63-16.33-4.2,0,0-.36-3.65,3.62-6.78l-.31,3.05s9.11-1.26,11.12-5.55Z" fill="#f8d509"/><path d="M164.42,135.4s27-2.53,27-21.42c0,0,18.67.82,22.73,4.26,0,0-4.82.78-12.47,7.69,0,0-4.11,5.03-5.46,4.93s-3.44.63-5.73-5c0,0-3.86,5.84-7.61,6.46,0,0,3.04,2.17,3.04,8.59,0,0,12.28,1.94,27.82-10.78,0,0,11.78-12.23,31.8-8.2,0,0-13.84-16.99-61.4-16.99,0,0,2.8,18.72-13.52,21.76l.47-2.73s-7.51,1.36-6.67,11.42Z" fill="#f8d509"/><path d="M164.61,123.73s.57-8.35-1.9-13.48c0,0,11.04-.63,16.33,4.2,0,0,.36,3.65-3.62,6.78l.31-3.05s-9.11,1.26-11.12,5.55Z" fill="#f8d509"/><path d="M109.91,164.42s2.53,27,21.42,27c0,0-.82,18.67-4.26,22.73,0,0-.78-4.82-7.69-12.47,0,0-5.03-4.11-4.93-5.46s-.63-3.44,5-5.73c0,0-5.84-3.86-6.46-7.61,0,0-2.17,3.04-8.59,3.04,0,0-1.94,12.28,10.78,27.82,0,0,12.23,11.78,8.2,31.8,0,0,16.99-13.84,16.99-61.4,0,0-18.72,2.8-21.76-13.52l2.73.47s-1.36-7.51-11.42-6.67Z" fill="#f8d509"/><path d="M121.59,164.61s8.35.57,13.48-1.9c0,0,.63,11.04-4.2,16.33,0,0-3.65.36-6.78-3.62l3.05.31s-1.26-9.11-5.55-11.12Z" fill="#f8d509"/><path d="M135.18,81.12s-2.53-27-21.42-27c0,0,.82-18.67,4.26-22.73,0,0,.78,4.82,7.69,12.47,0,0,5.03,4.11,4.93,5.46s.63,3.44-5,5.73c0,0,5.84,3.86,6.46,7.61,0,0,2.17-3.04,8.59-3.04,0,0,1.94-12.28-10.78-27.82,0,0-12.23-11.78-8.2-31.8,0,0-16.99,13.84-16.99,61.4,0,0,18.72-2.8,21.76,13.52l-2.73-.47s1.36,7.51,11.42,6.67Z" fill="#f8d509"/><path d="M123.51,80.93s-8.35-.57-13.48,1.9c0,0-.63-11.04,4.2-16.33,0,0,3.65-.36,6.78,3.62l-3.05-.31s1.26,9.11,5.55,11.12Z" fill="#f8d509"/><path d="M161.42,106.59s5.46-4.86,9.05-7.05,16.92-13.69,16.92-38.36c0,0-11.45,16.31-20.28,16.39-8.83.08-18.87,2.11-24.64,8.21,0,0,8.07,4.06,10.53,8.52,0,0,1.37-6.2,2.7-7.52,0,0,10.71-.38,17.13-2.88,0,0-1.56,6.73-10.72,13.99l-4.92-5.7s-1.46,2.11-.81,6.14c0,0,3.19,4.05,5.05,8.26Z" fill="#f8d509"/><path d="M140.36,161.08s4.86,5.46,7.05,9.05c2.19,3.6,13.69,16.92,38.36,16.92,0,0-16.31-11.45-16.39-20.28-.08-8.83-2.11-18.87-8.21-24.64,0,0-4.06,8.07-8.52,10.53,0,0,6.2,1.37,7.52,2.7,0,0,.38,10.71,2.88,17.13,0,0-6.73-1.56-13.99-10.72l5.7-4.92s-2.11-1.46-6.14-.81c0,0-4.05,3.19-8.26,5.05Z" fill="#f8d509"/><path d="M82.42,138.57s-5.46,4.86-9.05,7.05c-3.6,2.19-16.92,13.69-16.92,38.36,0,0,11.45-16.31,20.28-16.39s18.87-2.11,24.64-8.21c0,0-8.07-4.06-10.53-8.52,0,0-1.37,6.2-2.7,7.52,0,0-10.71.38-17.13,2.88,0,0,1.56-6.73,10.72-13.99l4.92,5.7s1.46-2.11.81-6.14c0,0-3.19-4.05-5.05-8.26Z" fill="#f8d509"/><path d="M104.9,83.86s-4.86-5.46-7.05-9.05c-2.19-3.6-13.69-16.92-38.36-16.92,0,0,16.31,11.45,16.39,20.28.08,8.83,2.11,18.87,8.21,24.64,0,0,4.06-8.07,8.52-10.53,0,0-6.2-1.37-7.52-2.7,0,0-.38-10.71-2.88-17.13,0,0,6.73,1.56,13.99,10.72l-5.7,4.92s2.11,1.46,6.14.81c0,0,4.05-3.19,8.26-5.05Z" fill="#f8d509"/></svg>