<?xml version="1.0" encoding="UTF-8"?><svg id="Layer_1" xmlns="http://www.w3.org/2000/svg" viewBox="0 0 1365.45 725.45"><path d="M1289.13,725.45H76.32c-42.08,0-76.32-34.24-76.32-76.32v-389c0-42.08,34.24-76.32,76.32-76.32h1212.81c42.08,0,76.32,34.24,76.32,76.32v389c0,42.08-34.24,76.32-76.32,76.32ZM76.32,196.36c-35.16,0-63.77,28.61-63.77,63.77v389c0,35.16,28.61,63.77,63.77,63.77h1212.81c35.16,0,63.77-28.61,63.77-63.77v-389c0-35.16-28.61-63.77-63.77-63.77H76.32Z"/><path d="M126.04,1.47h23.82c16.18,0,24.12,8.97,24.12,25.44v10.15c0,16.47-7.94,25.44-24.12,25.44h-7.65v41.91h-16.18V1.47ZM149.86,47.79c5.15,0,7.94-2.35,7.94-9.71v-12.21c0-7.35-2.79-9.71-7.94-9.71h-7.65v31.62h7.65Z"/><path d="M240.44,80V25.88c0-16.47,8.68-25.88,24.56-25.88s24.56,9.41,24.56,25.88v54.12c0,16.47-8.68,25.88-24.56,25.88s-24.56-9.41-24.56-25.88ZM273.38,81.03V24.85c0-7.35-3.23-10.15-8.38-10.15s-8.38,2.79-8.38,10.15v56.17c0,7.35,3.23,10.15,8.38,10.15s8.38-2.79,8.38-10.15Z"/><path d="M355.44,1.47h15.59l7.21,79.11h.29l7.65-79.11h17.65l7.65,79.11h.29l7.21-79.11h13.97l-10.44,102.94h-20.15l-7.35-69.41h-.29l-7.35,69.41h-21.47L355.44,1.47Z"/><path d="M500,1.47h44.12v14.71h-27.94v27.2h22.21v14.71h-22.21v31.62h27.94v14.71h-44.12V1.47Z"/><path d="M612.2,1.47h23.97c16.76,0,23.97,7.79,23.97,23.68v6.32c0,10.59-3.38,17.35-10.59,20.29v.29c8.09,2.5,10.73,10.15,10.73,21.76v18.09c0,5,.15,8.68,1.76,12.5h-16.47c-.88-2.65-1.47-4.26-1.47-12.65v-18.82c0-9.56-2.79-12.65-10.15-12.65h-5.59v44.12h-16.18V1.47ZM634.26,45.59c6.03,0,9.71-2.65,9.71-10.88v-7.94c0-7.35-2.5-10.59-8.23-10.59h-7.35v29.41h5.88Z"/><path d="M730.29,1.47h44.12v14.71h-27.94v27.2h22.21v14.71h-22.21v31.62h27.94v14.71h-44.12V1.47Z"/><path d="M842.5,1.47h24.7c16.18,0,24.12,8.97,24.12,25.44v52.06c0,16.47-7.94,25.44-24.12,25.44h-24.7V1.47ZM866.91,89.7c5.15,0,8.23-2.65,8.23-10V26.18c0-7.35-3.09-10-8.23-10h-8.24v73.53h8.24Z"/><path d="M1043.38,1.47h24.41c16.76,0,23.97,7.79,23.97,23.68v4.12c0,10.59-3.23,17.2-10.44,20.15v.29c8.68,2.94,12.06,10.59,12.06,21.47v8.82c0,15.88-8.38,24.41-24.56,24.41h-25.44V1.47ZM1065.87,43.38c6.03,0,9.71-2.65,9.71-10.88v-5.73c0-7.35-2.5-10.59-8.23-10.59h-7.79v27.2h6.32ZM1068.82,89.7c5.44,0,8.38-2.5,8.38-10.15v-8.97c0-9.56-3.09-12.5-10.44-12.5h-7.21v31.62h9.26Z"/><path d="M1174.11,60.59l-19.56-59.11h17.2l11.03,37.79h.29l11.03-37.79h15.73l-19.56,59.11v43.82h-16.18v-43.82Z"/><path d="M266.4,480.17h-74.56v128.41h-77.94v-317.44h140.95c35.76,0,63.26,8.14,82.52,24.42,19.26,16.28,28.89,39.97,28.89,71.07,0,19.77-5.34,36.99-16.03,51.67-10.68,14.68-25.55,25.66-44.59,32.92l74.56,134.74v2.62h-44.91l-68.89-128.41ZM191.84,445.94h64.32c20.78,0,37.32-5.39,49.6-16.16,12.28-10.78,18.42-25.19,18.42-43.25,0-19.66-5.85-34.72-17.55-45.21-11.7-10.49-28.6-15.8-50.69-15.95h-64.1v120.57Z"/><path d="M472.84,608.58h-79.03l121.22-317.44h72.49l121.44,317.44h-42.95l-98.05-255.87-95.12,255.87ZM569.2,342.82"/><path d="M811.63,434.62l126.21-139.89h50.58l-124.93,140.19,134.74,177.25h-50.15l-112.5-147.6"/><path d="M1087.55,461.55v112.5h159.81v34.23h-237.53v-317.44h235.35v34.23h-157.63v136.48Z"/><polyline points="1121.32 432.45 1241.8 432.45 1241.8 466.68 1121.14 466.68"/><rect x="719.65" y="294.19" width="77.72" height="317.44"/><rect x="579.32" y="581.94" width="25.82" height="25.82"/><rect x="579.32" y="543.13" width="25.82" height="25.82"/><rect x="540.52" y="543.13" width="25.82" height="25.82"/><rect x="540.52" y="581.94" width="25.82" height="25.82"/></svg>